<svg width="764" height="780" viewBox="0 0 764 780" fill="none" xmlns="http://www.w3.org/2000/svg">
<path fill-rule="evenodd" clip-rule="evenodd" d="M382.002 0C395.306 0.000202769 407.466 7.54818 413.368 19.4796L759.614 718.985C762.951 725.727 764.374 733.112 763.917 740.385C763.708 743.708 763.108 747.008 762.118 750.213C761.891 750.949 761.641 751.68 761.372 752.405C760.399 755.035 759.157 757.588 757.646 760.021L757.647 760.023C757.572 760.145 757.493 760.267 757.416 760.388C757.005 761.037 756.579 761.673 756.136 762.293C753.637 765.798 750.646 768.858 747.291 771.404C746.515 771.993 745.718 772.554 744.904 773.087C743.681 773.888 742.419 774.627 741.121 775.297C740.665 775.532 740.204 775.757 739.74 775.975C734.199 778.584 728.073 780 721.753 780H578.614L494.114 609.289C494.093 609.319 494.074 609.351 494.053 609.381C493.49 610.195 492.916 611.001 492.337 611.802C491.328 613.196 490.295 614.57 489.238 615.921C488.239 617.198 487.219 618.455 486.178 619.692C484.136 622.119 482.014 624.468 479.816 626.735C478.083 628.522 476.301 630.256 474.476 631.937C474.008 632.369 473.538 632.797 473.064 633.221C472.421 633.797 471.772 634.366 471.118 634.928C470.132 635.776 469.133 636.609 468.123 637.425C467.511 637.919 466.896 638.408 466.276 638.89C465.615 639.404 464.95 639.912 464.28 640.412C463.643 640.888 463.002 641.358 462.357 641.822C461.869 642.172 461.378 642.518 460.885 642.862C460.447 643.168 460.006 643.471 459.564 643.771C459.129 644.066 458.693 644.358 458.254 644.647C455.024 646.779 451.695 648.761 448.273 650.583C447.998 650.73 447.723 650.877 447.446 651.021C441.079 654.351 434.397 657.13 427.445 659.295C427.158 659.384 426.872 659.471 426.585 659.558C420.996 661.253 415.236 662.554 409.325 663.423C374.198 668.595 340.371 657.661 314.168 635.859C307.078 629.963 300.541 623.267 294.678 615.877C294.507 615.661 294.337 615.444 294.167 615.228C290.016 609.931 286.21 604.283 282.794 598.321C281.436 595.952 280.137 593.535 278.905 591.069L185.387 780H42.2475C41.3345 780 40.4255 779.971 39.5218 779.912C36.1316 779.694 32.8152 779.068 29.6344 778.072C29.2103 777.94 28.7883 777.801 28.3692 777.655C27.384 777.312 26.4137 776.932 25.4588 776.518C25.3349 776.464 25.2115 776.409 25.0882 776.355C17.6678 773.054 11.2406 767.636 6.71887 760.602L6.35432 760.024L6.35312 760.023C5.02798 757.888 3.90981 755.661 2.99776 753.371C2.74918 752.747 2.51521 752.118 2.29743 751.485C2.07939 750.852 1.87653 750.214 1.68943 749.572C1.05959 747.412 0.606362 745.212 0.328343 742.992C0.276286 742.577 0.230112 742.161 0.190436 741.744C0.148495 741.303 0.113002 740.862 0.084906 740.421C0.0568207 739.979 0.0355778 739.537 0.0213485 739.095C0.0142312 738.874 0.00940924 738.653 0.00575892 738.432C-0.0234272 736.662 0.0582935 734.89 0.251595 733.126C0.275755 732.906 0.301898 732.685 0.329543 732.465C0.910111 727.841 2.25841 723.282 4.38523 718.985L350.632 19.4796L350.914 18.923C351.068 18.6246 351.227 18.3292 351.389 18.0365C351.72 17.4394 352.066 16.8542 352.429 16.2816C352.968 15.4287 353.542 14.6031 354.147 13.8069C354.632 13.1697 355.137 12.5516 355.662 11.9524C360.117 6.86024 365.961 3.16679 372.462 1.32431C372.845 1.21586 373.23 1.11396 373.617 1.01842C374.971 0.684285 376.351 0.430133 377.751 0.259104C378.151 0.21025 378.552 0.167083 378.955 0.131951C379.962 0.0441085 380.979 3.23484e-05 382.002 0ZM377.624 255.344C336.418 305.75 308.695 357.61 292.06 405.629C274.465 456.364 269.297 502.828 273.538 538.542L273.747 540.235L273.97 541.902C278.85 576.838 295.992 606.501 319.904 626.398C344.208 646.602 375.412 656.674 407.883 651.898C440.359 647.113 467.885 628.395 486.215 601.916C504.532 575.437 513.595 541.263 509.043 505.599C507.603 494.368 502.905 483.393 495.838 472.216C488.789 461.053 479.408 449.759 468.986 437.989C448.142 414.432 423.125 389.016 404.436 357.697C391.984 336.815 382.366 313.24 378.881 285.958C377.635 276.229 377.172 266.036 377.624 255.344Z" fill="url(#paint0_linear_47_2748)"/>
<defs>
<linearGradient id="paint0_linear_47_2748" x1="-0.000306182" y1="6.25398e-06" x2="764.036" y2="779.772" gradientUnits="userSpaceOnUse">
<stop stop-color="#70FE6A"/>
<stop offset="1" stop-color="#16FABC"/>
</linearGradient>
</defs>
</svg>
