<svg width="160" height="24" viewBox="0 0 160 24" fill="none" xmlns="http://www.w3.org/2000/svg">
<path fill-rule="evenodd" clip-rule="evenodd" d="M59.4912 7.19219C60.5757 7.19219 61.5559 7.4356 62.4318 7.92239C63.3076 8.39526 63.9958 9.07678 64.4963 9.96689C65.0107 10.857 65.2679 11.8932 65.2679 13.0754C65.2679 14.2575 65.0038 15.3007 64.4755 16.2047C63.9611 17.0949 63.2589 17.7833 62.3691 18.27C61.4793 18.7568 60.4922 19.0002 59.4078 19.0002C58.3373 19.0002 57.3641 18.7568 56.4882 18.27C55.6262 17.7833 54.945 17.0948 54.4445 16.2047C53.9579 15.3007 53.7145 14.2575 53.7145 13.0754C53.7145 11.9071 53.9649 10.8778 54.4654 9.98768C54.9798 9.08368 55.675 8.39525 56.5508 7.92239C57.4267 7.43562 58.4068 7.19219 59.4912 7.19219ZM59.4704 8.84027C58.7753 8.84027 58.1357 9.00024 57.5518 9.32013C56.9818 9.62611 56.523 10.099 56.1755 10.7388C55.8279 11.3786 55.654 12.1574 55.654 13.0754C55.654 14.0072 55.8209 14.7931 56.1545 15.4328C56.5021 16.0726 56.961 16.5524 57.531 16.8723C58.101 17.1783 58.7266 17.3312 59.4078 17.3312C60.089 17.3312 60.7287 17.1713 61.3265 16.8514C61.9243 16.5315 62.404 16.0517 62.7654 15.4119C63.1408 14.7721 63.3285 13.9933 63.3285 13.0754C63.3285 12.1574 63.1477 11.3786 62.7862 10.7388C62.4247 10.099 61.9521 9.62611 61.3682 9.32013C60.7843 9.00025 60.1517 8.84027 59.4704 8.84027Z" fill="white"/>
<path fill-rule="evenodd" clip-rule="evenodd" d="M93.636 7.19219C94.637 7.19219 95.5059 7.40781 96.2428 7.83894C96.9796 8.2701 97.5288 8.81254 97.8903 9.46622V7.38H99.8089V18.8124H97.8903V16.6845C97.5149 17.3521 96.9519 17.9084 96.2012 18.3535C95.4643 18.7846 94.6023 19.0002 93.6152 19.0002C92.6003 19.0002 91.6826 18.7499 90.8624 18.2492C90.0421 17.7486 89.3956 17.0461 88.9229 16.1421C88.4502 15.2381 88.2139 14.2089 88.2139 13.0546C88.2139 11.8863 88.4502 10.8639 88.9229 9.98768C89.3956 9.09758 90.0421 8.40917 90.8624 7.92239C91.6965 7.43561 92.6211 7.1922 93.636 7.19219ZM94.0114 8.84027C93.3023 8.84027 92.6558 9.00727 92.0719 9.34106C91.488 9.67485 91.0222 10.1616 90.6747 10.8013C90.3271 11.4411 90.1533 12.1923 90.1533 13.0546C90.1534 13.9307 90.3271 14.6957 90.6747 15.3494C91.0222 15.9891 91.488 16.4829 92.0719 16.8306C92.6558 17.1644 93.3023 17.3312 94.0114 17.3312C94.7204 17.3312 95.3669 17.1644 95.9508 16.8306C96.5487 16.4829 97.0214 15.9892 97.369 15.3494C97.7166 14.6957 97.8903 13.9377 97.8903 13.0754C97.8903 12.2131 97.7165 11.462 97.369 10.8222C97.0214 10.1825 96.5487 9.69565 95.9508 9.36185C95.3669 9.01416 94.7204 8.84027 94.0114 8.84027Z" fill="white"/>
<path fill-rule="evenodd" clip-rule="evenodd" d="M44.6795 18.8124H42.6774L41.5096 15.5788H35.1698L34.002 18.8124H32L37.2552 4.35498H39.445L44.6795 18.8124ZM35.7121 14.0351H40.9674L38.3397 6.69153L35.7121 14.0351Z" fill="white"/>
<path d="M52.3959 9.13245H51.8954C49.7683 9.13245 48.7047 10.2868 48.7047 12.5955V18.8124H46.8069V7.38H48.7047V9.23669C49.0383 8.58301 49.5111 8.07539 50.1228 7.71378C50.7484 7.35218 51.5062 7.1714 52.3959 7.1714V9.13245Z" fill="white"/>
<path d="M81.3432 7.1714C82.233 7.1714 83.0255 7.35906 83.7206 7.73457C84.4157 8.09619 84.9648 8.64565 85.368 9.38278C85.7712 10.1199 85.9728 11.017 85.9728 12.074V18.8124H84.096V12.3452C84.096 11.2047 83.811 10.3354 83.241 9.73735C82.6849 9.12539 81.9271 8.81947 80.9678 8.81947C79.9807 8.81948 79.1952 9.13934 78.6113 9.77907C78.0274 10.4049 77.7354 11.316 77.7354 12.512V18.8124H75.8585V12.3452C75.8585 11.2047 75.5735 10.3354 75.0035 9.73735C74.4474 9.12541 73.6897 8.81948 72.7304 8.81947C71.7433 8.81947 70.9577 9.13932 70.3738 9.77907C69.7899 10.4049 69.4979 11.316 69.4979 12.512V18.8124H67.6002V7.38H69.4979V9.02808C69.8733 8.43004 70.3738 7.97102 70.9994 7.65113C71.6389 7.33124 72.3411 7.1714 73.1057 7.1714C74.065 7.1714 74.9131 7.38687 75.65 7.81802C76.3868 8.24917 76.9359 8.88207 77.2974 9.71655C77.6172 8.9099 78.1455 8.284 78.8823 7.83894C79.6192 7.39388 80.4396 7.1714 81.3432 7.1714Z" fill="white"/>
<path d="M109.297 4C111.035 4 112.522 4.45901 113.76 5.37695C114.997 6.29488 115.824 7.54667 116.241 9.13217H112.321C112.029 8.52021 111.612 8.05418 111.069 7.73429C110.541 7.41443 109.936 7.25456 109.255 7.25456C108.157 7.25457 107.267 7.63703 106.586 8.40197C105.905 9.16692 105.564 10.1892 105.564 11.4687C105.564 12.7483 105.905 13.7705 106.586 14.5355C107.267 15.3004 108.157 15.6829 109.255 15.6829C109.936 15.6829 110.541 15.5229 111.069 15.203C111.612 14.8831 112.029 14.4172 112.321 13.8053H116.241C115.824 15.3908 114.997 16.6426 113.76 17.5605C112.522 18.4645 111.035 18.9165 109.297 18.9165C107.879 18.9165 106.607 18.6036 105.481 17.9777C104.368 17.3379 103.499 16.4547 102.874 15.3282C102.248 14.2016 101.935 12.9152 101.935 11.4687C101.935 10.0223 102.248 8.73569 102.874 7.60913C103.499 6.46869 104.368 5.58546 105.481 4.9596C106.607 4.31984 107.879 4 109.297 4Z" fill="white"/>
<path d="M121.828 9.90396H127.376V4.16689H130.942V18.8121H127.376V12.783H121.828V18.8121H118.262V4.16689H121.828V9.90396Z" fill="white"/>
<path fill-rule="evenodd" clip-rule="evenodd" d="M147.117 18.8121H143.343L142.467 16.2253H137.003L136.127 18.8121H132.394L137.691 4.16689H141.82L147.117 18.8121ZM137.941 13.4715H141.549L139.735 8.10992L137.941 13.4715Z" fill="white"/>
<path d="M159.098 7.02502H155.219V18.8121H151.653V7.02502H147.774V4.16689H159.098V7.02502Z" fill="white"/>
<path fill-rule="evenodd" clip-rule="evenodd" d="M12.0001 0C12.418 6.23905e-06 12.8 0.232252 12.9854 0.599373L23.8622 22.1226C23.9671 22.3301 24.0117 22.5573 23.9974 22.7811C23.9908 22.8833 23.972 22.9849 23.9409 23.0835C23.9337 23.1061 23.9259 23.1286 23.9175 23.1509C23.8869 23.2319 23.8479 23.3104 23.8004 23.3853L23.8004 23.3853C23.7981 23.3891 23.7956 23.3928 23.7932 23.3966C23.7803 23.4165 23.7669 23.4361 23.753 23.4552C23.6745 23.563 23.5805 23.6572 23.4751 23.7355C23.4507 23.7536 23.4257 23.7709 23.4001 23.7873C23.3617 23.8119 23.3221 23.8347 23.2813 23.8553C23.267 23.8625 23.2525 23.8694 23.2379 23.8762C23.0638 23.9564 22.8714 24 22.6729 24H18.1764L15.5219 18.7473C15.5212 18.7483 15.5206 18.7493 15.52 18.7502C15.5023 18.7752 15.4843 18.8 15.4661 18.8247C15.4344 18.8676 15.402 18.9098 15.3687 18.9514C15.3374 18.9907 15.3053 19.0294 15.2726 19.0675C15.2085 19.1421 15.1418 19.2144 15.0728 19.2842C15.0183 19.3391 14.9623 19.3925 14.905 19.4442C14.8903 19.4575 14.8755 19.4707 14.8607 19.4837C14.8405 19.5014 14.8201 19.5189 14.7995 19.5362C14.7685 19.5623 14.7372 19.588 14.7054 19.6131C14.6862 19.6283 14.6669 19.6433 14.6474 19.6582C14.6267 19.674 14.6058 19.6896 14.5847 19.705C14.5647 19.7196 14.5446 19.7341 14.5243 19.7484C14.509 19.7591 14.4936 19.7698 14.4781 19.7804C14.4643 19.7898 14.4505 19.7991 14.4366 19.8083C14.4229 19.8174 14.4092 19.8264 14.3954 19.8353C14.294 19.9009 14.1894 19.9619 14.0819 20.018C14.0732 20.0225 14.0646 20.027 14.0559 20.0314C13.8559 20.1339 13.646 20.2194 13.4276 20.286C13.4186 20.2887 13.4096 20.2914 13.4006 20.2941C13.225 20.3462 13.0441 20.3863 12.8584 20.413C11.7549 20.5722 10.6923 20.2357 9.86916 19.5649C9.64644 19.3835 9.44107 19.1774 9.25689 18.95C9.25152 18.9434 9.24618 18.9368 9.24084 18.9301C9.11045 18.7671 8.9909 18.5933 8.88357 18.4099C8.84091 18.337 8.8001 18.2626 8.7614 18.1867L5.82369 24H1.32715C1.29847 24 1.26991 23.9991 1.24152 23.9973C1.13502 23.9906 1.03084 23.9713 0.930922 23.9407C0.9176 23.9366 0.904346 23.9323 0.891179 23.9278C0.860232 23.9173 0.829749 23.9056 0.799751 23.8929C0.795861 23.8912 0.791984 23.8895 0.788111 23.8878C0.55501 23.7863 0.353108 23.6196 0.211064 23.4031L0.199612 23.3853L0.199574 23.3853C0.157947 23.3196 0.122821 23.2511 0.0941705 23.1806C0.0863616 23.1614 0.0790117 23.1421 0.0721705 23.1226C0.0653213 23.1031 0.0589487 23.0835 0.0530712 23.0638C0.0332854 22.9973 0.019048 22.9296 0.0103145 22.8613C0.00867913 22.8485 0.00722866 22.8357 0.00598227 22.8229C0.00466477 22.8093 0.00354979 22.7958 0.00266721 22.7822C0.00178494 22.7686 0.00111763 22.755 0.000670634 22.7414C0.000447053 22.7346 0.000295578 22.7278 0.000180908 22.721C-0.000735934 22.6665 0.00183121 22.612 0.0079035 22.5577C0.00866245 22.5509 0.0094837 22.5442 0.0103521 22.5374C0.0285899 22.3951 0.0709448 22.2548 0.137756 22.1226L11.0146 0.599373L11.0235 0.582247C11.0283 0.573065 11.0333 0.563976 11.0384 0.55497C11.0488 0.536597 11.0597 0.518592 11.0711 0.500972C11.088 0.474728 11.106 0.449326 11.125 0.424828C11.1403 0.405222 11.1561 0.386203 11.1726 0.367766C11.3126 0.211084 11.4962 0.0974396 11.7004 0.040748C11.7124 0.037411 11.7245 0.0342756 11.7367 0.0313361C11.7792 0.0210549 11.8226 0.0132349 11.8665 0.00797244C11.8791 0.00646923 11.8917 0.00514101 11.9043 0.00406004C11.936 0.00135719 11.9679 9.95336e-07 12.0001 0ZM11.8625 7.85673C10.5681 9.4077 9.69724 11.0034 9.17465 12.4809C8.62195 14.042 8.45961 15.4716 8.59282 16.5705L8.59938 16.6226L8.60638 16.6739C8.75968 17.7489 9.29817 18.6616 10.0493 19.2738C10.8128 19.8954 11.793 20.2054 12.8131 20.0584C13.8333 19.9112 14.698 19.3352 15.2738 18.5205C15.8492 17.7057 16.1339 16.6542 15.9909 15.5569C15.9457 15.2113 15.7981 14.8736 15.5761 14.5297C15.3546 14.1862 15.0599 13.8387 14.7325 13.4766C14.0777 12.7518 13.2919 11.9697 12.7048 11.0061C12.3136 10.3635 12.0115 9.63816 11.902 8.7987C11.8629 8.49936 11.8483 8.18572 11.8625 7.85673Z" fill="url(#paint0_linear_52_2767)"/>
<defs>
<linearGradient id="paint0_linear_52_2767" x1="-9.6183e-06" y1="1.9243e-07" x2="23.4938" y2="24.4798" gradientUnits="userSpaceOnUse">
<stop stop-color="#70FE6A"/>
<stop offset="1" stop-color="#16FABC"/>
</linearGradient>
</defs>
</svg>
